<svg id="Capa_1" enable-background="new 0 0 512 512" height="512" viewBox="0 0 512 512" width="512" xmlns="http://www.w3.org/2000/svg"><g><path d="m464.832 237.371h-417.664c-26.05 0-47.168-21.117-47.168-47.167v-96.138c0-26.05 21.118-47.168 47.168-47.168h417.665c26.05 0 47.168 21.118 47.168 47.168v96.138c-.001 26.05-21.119 47.167-47.169 47.167z" fill="#e28086"/><path d="m63.614 237.375h-16.442c-26.053 0-47.172-21.119-47.172-47.171v-96.137c0-26.053 21.119-47.172 47.172-47.172h16.442c-26.053 0-47.172 21.119-47.172 47.172v96.137c0 26.052 21.118 47.171 47.172 47.171z" fill="#dd636e"/><path d="m47.168 206.466c-8.967 0-16.262-7.295-16.262-16.263v-96.137c0-8.967 7.295-16.263 16.262-16.263h417.664c8.967 0 16.263 7.295 16.263 16.263v96.137c0 8.967-7.296 16.263-16.263 16.263z" fill="#f6f9f9"/><g><path d="m494.543 455.963c-12.185 12.185-31.941 12.185-44.126 0l-87.883-87.883 44.126-44.126 87.883 87.883c12.185 12.186 12.185 31.941 0 44.126z" fill="#b46e59"/><path d="m501.776 444.616c-1.497 4.151-3.913 8.03-7.23 11.347-12.189 12.189-31.94 12.189-44.129 0l-87.883-87.883 18.585-18.585 87.883 87.883c8.864 8.863 21.734 11.287 32.774 7.238z" fill="#a55e4d"/><circle cx="322.379" cy="283.798" fill="#f6de81" r="122.406"/><path d="m334.989 405.557c-4.138.433-8.348.65-12.607.65-67.604 0-122.409-54.805-122.409-122.409 0-67.592 54.805-122.397 122.409-122.397 4.258 0 8.469.217 12.607.65-61.686 6.303-109.815 58.414-109.815 121.748 0 63.345 48.129 115.455 109.815 121.758z" fill="#f2ce6b"/><circle cx="322.379" cy="283.798" fill="#dee8fd" r="79.62"/><path d="m333.772 362.601c-3.717.541-7.53.818-11.404.818-43.967 0-79.609-35.643-79.609-79.621 0-43.967 35.643-79.609 79.609-79.609 3.873 0 7.687.277 11.404.818-38.578 5.521-68.218 38.698-68.218 78.791 0 40.105 29.64 73.282 68.218 78.803z" fill="#c9dbfd"/><path d="m322.378 371.103c-22.367 0-44.735-8.514-61.764-25.542-16.497-16.497-25.583-38.432-25.583-61.763s9.086-45.266 25.583-61.763c34.056-34.056 89.471-34.057 123.527 0 34.056 34.056 34.056 89.47 0 123.526-17.027 17.028-39.396 25.542-61.763 25.542zm0-159.165c-18.41 0-36.821 7.008-50.836 21.024-13.579 13.579-21.058 31.633-21.058 50.837s7.478 37.258 21.058 50.837c28.03 28.031 73.642 28.031 101.672 0 28.032-28.031 28.032-73.642 0-101.673-14.015-14.017-32.425-21.025-50.836-21.025z" fill="#f2ce6b"/><path d="m434.477 333.863-62.034 62.034c-8.385 8.385-8.385 21.98 0 30.365 8.385 8.385 21.98 8.385 30.365 0l62.034-62.034c8.385-8.385 8.385-21.98 0-30.365-8.385-8.385-21.98-8.385-30.365 0z" fill="#e28086"/><path d="m419.021 401.152c5.495 0 10.99-2.092 15.183-6.286l-31.395 31.395c-4.193 4.193-9.688 6.286-15.183 6.286s-10.99-2.092-15.183-6.286c-8.387-8.387-8.387-21.979 0-30.366l31.395-31.395c-8.387 8.387-8.387 21.979 0 30.366 4.194 4.194 9.689 6.286 15.183 6.286z" fill="#dd636e"/></g><path d="m68.423 180.693c-4.267 0-7.726-3.459-7.726-7.726v-61.663c0-4.267 3.459-7.726 7.726-7.726s7.726 3.459 7.726 7.726v61.663c0 4.267-3.459 7.726-7.726 7.726z" fill="#30579d"/></g></svg>